<?xml version="1.0" encoding="iso-8859-1"?>
<!-- Generator: Adobe Illustrator 19.0.0, SVG Export Plug-In . SVG Version: 6.00 Build 0)  -->
<svg version="1.1" id="Layer_1" xmlns="http://www.w3.org/2000/svg" xmlns:xlink="http://www.w3.org/1999/xlink" x="0px" y="0px"
	 viewBox="0 0 485 485" style="enable-background:new 0 0 485 485;" xml:space="preserve">
<path d="M485,95c0-30.327-24.673-55-55-55s-55,24.673-55,55c0,19.213,9.91,36.146,24.878,45.984L336.3,195.237l-63.233-54.539
	C287.789,130.819,297.5,114.023,297.5,95c0-30.327-24.673-55-55-55s-55,24.673-55,55c0,19.021,9.708,35.814,24.427,45.694
	l-63.233,54.541l-63.573-54.251C100.09,131.146,110,114.213,110,95c0-30.327-24.673-55-55-55S0,64.673,0,95
	c0,25.68,17.693,47.3,41.527,53.325L87.5,361.599V445h310v-83.401l45.973-213.274C467.307,142.3,485,120.68,485,95z M430,70
	c13.785,0,25,11.215,25,25s-11.215,25-25,25s-25-11.215-25-25S416.215,70,430,70z M242.5,70c13.785,0,25,11.215,25,25
	s-11.215,25-25,25s-25-11.215-25-25S228.715,70,242.5,70z M55,70c13.785,0,25,11.215,25,25s-11.215,25-25,25s-25-11.215-25-25
	S41.215,70,55,70z M117.5,415v-40h250v40H117.5z M370.389,345H114.611L77.787,174.165l71.011,60.599l93.696-80.818l93.7,80.817
	l71.02-60.601L370.389,345z"/>
<g>
</g>
<g>
</g>
<g>
</g>
<g>
</g>
<g>
</g>
<g>
</g>
<g>
</g>
<g>
</g>
<g>
</g>
<g>
</g>
<g>
</g>
<g>
</g>
<g>
</g>
<g>
</g>
<g>
</g>
</svg>
