<?xml version="1.0" encoding="iso-8859-1"?>
<!-- Generator: Adobe Illustrator 19.0.0, SVG Export Plug-In . SVG Version: 6.00 Build 0)  -->
<svg version="1.1" id="Layer_1" xmlns="http://www.w3.org/2000/svg" xmlns:xlink="http://www.w3.org/1999/xlink" x="0px" y="0px"
	 viewBox="0 0 485 485" style="enable-background:new 0 0 485 485;" xml:space="preserve">
<g>
	<path d="M413.974,71.026C368.171,25.225,307.274,0,242.5,0S116.829,25.225,71.026,71.026C25.225,116.829,0,177.726,0,242.5
		s25.225,125.671,71.026,171.474C116.829,459.775,177.726,485,242.5,485s125.671-25.225,171.474-71.026
		C459.775,368.171,485,307.274,485,242.5S459.775,116.829,413.974,71.026z M242.5,455C125.327,455,30,359.673,30,242.5
		S125.327,30,242.5,30S455,125.327,455,242.5S359.673,455,242.5,455z"/>
	<path d="M318.514,231.486c19.299,0,35-15.701,35-35s-15.701-35-35-35s-35,15.701-35,35S299.215,231.486,318.514,231.486z"/>
	<path d="M166.486,231.486c19.299,0,35-15.701,35-35s-15.701-35-35-35s-35,15.701-35,35S147.188,231.486,166.486,231.486z"/>
	<path d="M122.822,300.486h62.421v47.257c0,31.571,25.686,57.257,57.257,57.257s57.257-25.686,57.257-57.257v-47.257h62.421v-30
		H122.822V300.486z M269.757,347.743c0,15.029-12.228,27.257-27.257,27.257s-27.257-12.228-27.257-27.257v-47.257h54.514V347.743z"
		/>
</g>
<g>
</g>
<g>
</g>
<g>
</g>
<g>
</g>
<g>
</g>
<g>
</g>
<g>
</g>
<g>
</g>
<g>
</g>
<g>
</g>
<g>
</g>
<g>
</g>
<g>
</g>
<g>
</g>
<g>
</g>
</svg>
