<?xml version="1.0" encoding="iso-8859-1"?>
<!-- Generator: Adobe Illustrator 19.0.0, SVG Export Plug-In . SVG Version: 6.00 Build 0)  -->
<svg version="1.1" id="Layer_1" xmlns="http://www.w3.org/2000/svg" xmlns:xlink="http://www.w3.org/1999/xlink" x="0px" y="0px"
	 viewBox="0 0 485 485" style="enable-background:new 0 0 485 485;" xml:space="preserve">
<path d="M387.065,238.478c8.825,0,17.269,2.041,25.097,6.067l21.859,11.24V101.957h-108.24C326.918,96.383,327.5,90.694,327.5,85
	c0-46.869-38.131-85-85-85s-85,38.131-85,85c0,5.694,0.582,11.383,1.718,16.957H50.978v153.829l21.859-11.24
	c7.829-4.026,16.272-6.067,25.097-6.067c30.327,0,55,24.673,55,55s-24.673,55-55,55c-8.825,0-17.269-2.041-25.097-6.066
	l-21.859-11.24V485h383.044V331.171l-21.859,11.24c-7.828,4.025-16.272,6.066-25.097,6.066c-30.327,0-55-24.673-55-55
	S356.738,238.478,387.065,238.478z M387.065,378.478c5.694,0,11.383-0.582,16.957-1.718V455H80.978v-78.24
	c5.573,1.136,11.263,1.718,16.957,1.718c46.869,0,85-38.131,85-85s-38.131-85-85-85c-5.694,0-11.382,0.582-16.957,1.718v-78.24
	h123.83l-11.242-21.86C189.541,102.27,187.5,93.826,187.5,85c0-30.327,24.673-55,55-55s55,24.673,55,55
	c0,8.826-2.041,17.27-6.066,25.097l-11.242,21.86h123.83v78.24c-5.574-1.137-11.262-1.718-16.957-1.718c-46.869,0-85,38.131-85,85
	S340.196,378.478,387.065,378.478z"/>
<g>
</g>
<g>
</g>
<g>
</g>
<g>
</g>
<g>
</g>
<g>
</g>
<g>
</g>
<g>
</g>
<g>
</g>
<g>
</g>
<g>
</g>
<g>
</g>
<g>
</g>
<g>
</g>
<g>
</g>
</svg>
