<?xml version="1.0" encoding="iso-8859-1"?>
<!-- Generator: Adobe Illustrator 19.0.0, SVG Export Plug-In . SVG Version: 6.00 Build 0)  -->
<svg version="1.1" id="Layer_1" xmlns="http://www.w3.org/2000/svg" xmlns:xlink="http://www.w3.org/1999/xlink" x="0px" y="0px"
	 viewBox="0 0 485 485" style="enable-background:new 0 0 485 485;" xml:space="preserve">
<g>
	<path d="M413.974,71.026C368.171,25.225,307.274,0,242.5,0S116.829,25.225,71.026,71.026C25.225,116.829,0,177.726,0,242.5
		s25.225,125.671,71.026,171.474C116.829,459.775,177.726,485,242.5,485s125.671-25.225,171.474-71.026
		C459.775,368.171,485,307.274,485,242.5S459.775,116.829,413.974,71.026z M242.5,455C125.327,455,30,359.673,30,242.5
		S125.327,30,242.5,30S455,125.327,455,242.5S359.673,455,242.5,455z"/>
	<path d="M318.514,161.486c-19.299,0-35,15.701-35,35s15.701,35,35,35s35-15.701,35-35S337.813,161.486,318.514,161.486z"/>
	<path d="M201.486,196.486c0-19.299-15.701-35-35-35s-35,15.701-35,35s15.701,35,35,35S201.486,215.785,201.486,196.486z"/>
	<path d="M242.5,270.486c-31.572,0-57.257,25.686-57.257,57.257S210.928,385,242.5,385c31.571,0,57.257-25.686,57.257-57.257
		S274.071,270.486,242.5,270.486z M242.5,355c-15.029,0-27.257-12.228-27.257-27.257s12.228-27.257,27.257-27.257
		s27.257,12.228,27.257,27.257S257.529,355,242.5,355z"/>
</g>
<g>
</g>
<g>
</g>
<g>
</g>
<g>
</g>
<g>
</g>
<g>
</g>
<g>
</g>
<g>
</g>
<g>
</g>
<g>
</g>
<g>
</g>
<g>
</g>
<g>
</g>
<g>
</g>
<g>
</g>
</svg>
