<?xml version="1.0" encoding="iso-8859-1"?>
<!-- Generator: Adobe Illustrator 19.0.0, SVG Export Plug-In . SVG Version: 6.00 Build 0)  -->
<svg version="1.1" id="Layer_1" xmlns="http://www.w3.org/2000/svg" xmlns:xlink="http://www.w3.org/1999/xlink" x="0px" y="0px"
	 viewBox="0 0 485 485" style="enable-background:new 0 0 485 485;" xml:space="preserve">
<path d="M485,242.5c0-64.774-25.225-125.671-71.026-171.474C368.399,25.453,307.878,0.261,243.465,0.012
	C243.141,0.004,242.819,0,242.5,0s-0.641,0.004-0.965,0.012c-64.413,0.25-124.934,25.441-170.509,71.015
	C25.225,116.829,0,177.726,0,242.5s25.225,125.671,71.026,171.474c45.574,45.574,106.095,70.765,170.509,71.015
	c0.324,0.008,0.646,0.012,0.965,0.012s0.641-0.004,0.965-0.012c64.413-0.25,124.934-25.441,170.509-71.015
	C459.775,368.171,485,307.274,485,242.5z M392.295,393.076c-20.802-16.357-43.997-29.1-68.641-37.851
	c5.523-29.921,8.782-63.13,9.515-97.725h121.295C450.762,310.316,427.681,357.871,392.295,393.076z M317.178,384.797
	c18.448,6.925,35.923,16.423,51.9,28.284c-22.593,16.808-48.625,29.232-76.83,36.023c6.297-10.531,12.425-23.956,18.104-40.994
	C312.815,400.722,315.09,392.929,317.178,384.797z M303.165,257.5c-0.696,31.714-3.593,62.07-8.473,89.439
	c-17.018-3.747-34.506-5.689-52.191-5.689s-35.174,1.941-52.191,5.689c-4.88-27.369-7.777-57.725-8.474-89.439H303.165z
	 M181.835,227.5c0.696-31.714,3.593-62.07,8.474-89.439c17.018,3.747,34.506,5.689,52.191,5.689s35.174-1.941,52.191-5.689
	c4.88,27.369,7.777,57.725,8.473,89.439H181.835z M454.464,227.5H333.169c-0.732-34.595-3.992-67.804-9.515-97.725
	c24.643-8.751,47.838-21.494,68.641-37.851C427.681,127.129,450.762,174.684,454.464,227.5z M310.353,76.89
	c-5.68-17.039-11.807-30.464-18.104-40.994c28.204,6.792,54.237,19.215,76.83,36.023c-15.977,11.861-33.452,21.359-51.9,28.284
	C315.09,92.071,312.815,84.278,310.353,76.89z M281.892,86.376c2.353,7.06,4.522,14.534,6.509,22.353
	c-14.964,3.308-30.345,5.021-45.9,5.021c-15.555,0-30.936-1.713-45.901-5.021c1.987-7.819,4.155-15.292,6.509-22.353
	C216.979,44.765,232.997,30,242.5,30S268.021,44.765,281.892,86.376z M167.822,100.203c-18.448-6.925-35.923-16.424-51.9-28.284
	c22.592-16.808,48.625-29.231,76.829-36.023c-6.297,10.531-12.425,23.956-18.104,40.994
	C172.185,84.278,169.91,92.071,167.822,100.203z M92.705,91.925c20.803,16.357,43.997,29.1,68.641,37.851
	c-5.523,29.921-8.783,63.13-9.515,97.725H30.536C34.238,174.684,57.318,127.13,92.705,91.925z M30.536,257.5h121.294
	c0.732,34.595,3.992,67.804,9.515,97.725c-24.643,8.751-47.838,21.494-68.641,37.851C57.318,357.87,34.238,310.316,30.536,257.5z
	 M174.647,408.11c5.68,17.039,11.807,30.464,18.104,40.994c-28.204-6.792-54.237-19.215-76.829-36.023
	c15.977-11.861,33.452-21.36,51.9-28.284C169.91,392.929,172.185,400.722,174.647,408.11z M203.108,398.624
	c-2.353-7.06-4.522-14.534-6.509-22.353c14.964-3.308,30.345-5.021,45.901-5.021c15.555,0,30.936,1.713,45.9,5.021
	c-1.987,7.819-4.155,15.292-6.509,22.353C268.021,440.235,252.003,455,242.5,455S216.979,440.235,203.108,398.624z"/>
<g>
</g>
<g>
</g>
<g>
</g>
<g>
</g>
<g>
</g>
<g>
</g>
<g>
</g>
<g>
</g>
<g>
</g>
<g>
</g>
<g>
</g>
<g>
</g>
<g>
</g>
<g>
</g>
<g>
</g>
</svg>
